<svg fill="none" height="16" viewBox="0 0 16 16" width="16" xmlns="http://www.w3.org/2000/svg"><path d="m6.99976 5c0-2.20914 1.79087-4 4.00004-4 .5087 0 .9965.09524 1.4455.26931.1576.06109.2736.19767.3085.36304.0348.16538-.0162.33718-.1357.45669l-1.911 1.91108 1.2929 1.2929 1.9109-1.91095c.1195-.11953.2913-.17057.4567-.1357.1654.03488.3019.15095.363.30856.174.44887.2692.93645.2692 1.44507 0 2.20914-1.7909 4-4 4-.3801 0-.7485-.05316-1.09778-.15264l-5.00648 5.07184c-.71395.7233-1.85874.7909-2.65278.1565-.91412-.7302-1.002-2.0885-.18961-2.9304l5.05084-5.23469c-.06823-.2929-.10423-.59782-.10423-.91061zm4.00004-3c-1.65689 0-3.00004 1.34315-3.00004 3 0 .31548.04853.61868.13817.90305.05508.17476.01016.36564-.11706.49749l-5.24809 5.43906c-.40331.418-.35968 1.0923.09413 1.4548.39419.3149.96252.2814 1.31695-.0777l5.22419-5.2924c.13885-.14066.34752-.18633.53243-.11653.32872.12409.68542.19223 1.05932.19223 1.6568 0 3-1.34315 3-3 0-.0944-.0044-.18772-.0129-.27977l-1.6334 1.63345c-.0937.09377-.2209.14645-.3535.14645s-.2598-.05268-.3536-.14645l-1.99997-2c-.19526-.19526-.19526-.51183-.00001-.7071l1.63368-1.63369c-.0923-.00853-.1858-.01289-.2803-.01289z" fill="#212121"/></svg>